<svg width="92" height="92" viewBox="0 0 92 92" fill="none" xmlns="http://www.w3.org/2000/svg">
<g clip-path="url(#clip0_385_21169)">
<path d="M92 46C92 64.7917 80.7318 80.951 64.5833 88.09L9.17844 73.5749C3.41586 65.8914 0 56.3446 0 46C0 20.594 20.5958 0 46 0C71.4042 0 92 20.594 92 46Z" fill="#A772F2"/>
<path d="M92 46C92 42.2699 91.5529 38.6448 90.7148 35.1722L77.9777 22.4351L75.0375 22.029L69.8352 16.8267L58.3749 24.1306L47.9613 13.717L44.5625 21.4921L23.6689 32.8911L34.7402 43.9623L29.9851 54.8403L39.6272 81.5521L64.5832 88.09C80.7318 80.951 92 64.7917 92 46Z" fill="#7C56D8"/>
<path d="M30.4238 50.8891V39.6946H37.2024L39.0673 46.3439L37.2022 52.9936L30.4238 50.8891Z" fill="#FFC1A6"/>
<path d="M43.9802 39.6946H37.2024V48.1907L40.5913 49.4962L43.9802 48.1907V39.6946Z" fill="#F9A991"/>
<path d="M37.2367 48.1907H30.4581L29.6621 59.3853L37.2363 61.4898L39.7029 54.2352L37.2367 48.1907Z" fill="#FFDCC0"/>
<path d="M43.9802 48.1907H37.2024V61.4896L45.0628 59.3853L43.9802 48.1907Z" fill="#FFC1A6"/>
<path d="M37.2019 12.9862C31.7221 12.9862 25.2462 15.9449 24.7188 23.9509C23.3018 24.2249 22.2952 26.0836 22.4537 27.5864L22.6966 31.0062C22.8628 32.5842 24.25 33.7363 25.7788 33.5649L26.0424 33.5363C27.1126 36.4069 28.3895 38.4005 29.7312 39.7994C32.3183 42.4983 35.1486 42.9893 37.2021 43.3139C39.2553 42.9892 42.6816 12.9862 37.2019 12.9862Z" fill="#FFDCC0"/>
<path d="M44.6727 39.799C46.0144 38.4001 47.2911 36.4065 48.3613 33.536L48.6249 33.5646C50.1537 33.7362 51.5408 32.584 51.7071 31.0058L51.95 27.586C52.1085 26.0833 51.1019 24.2246 49.6849 23.9506C49.1577 15.9448 42.6819 12.986 37.2021 12.9858V43.3135C39.2556 42.989 42.0855 42.4979 44.6727 39.799Z" fill="#FFC1A6"/>
<path d="M33.4241 31.1005C34.4473 30.5529 34.8328 29.2797 34.2853 28.2566C33.7378 27.2334 32.4645 26.8479 31.4414 27.3954C30.4183 27.9429 30.0327 29.2162 30.5802 30.2393C31.1278 31.2624 32.401 31.648 33.4241 31.1005Z" fill="#595959"/>
<path d="M44.0644 29.7245C44.3301 28.5947 43.6295 27.4634 42.4997 27.1978C41.3698 26.9321 40.2386 27.6327 39.9729 28.7625C39.7073 29.8924 40.4079 31.0236 41.5377 31.2893C42.6675 31.5549 43.7988 30.8543 44.0644 29.7245Z" fill="#3F3F3F"/>
<path d="M61.7278 56.6829V64.3707C56.7158 69.6391 50.0235 73.2932 42.5115 74.4779C40.7822 74.7503 39.0079 74.8917 37.2021 74.8917C35.3962 74.8917 33.622 74.7503 31.8927 74.4779C24.3806 73.2934 17.6884 69.6391 12.6765 64.3707V56.6829C12.6765 51.9922 16.4787 48.19 21.1694 48.19H32.6833L37.2021 52.9936L41.7208 48.19H53.2347C57.9254 48.19 61.7278 51.9924 61.7278 56.6829Z" fill="white"/>
<path d="M53.235 48.19H41.7212L37.2024 52.9936V74.8917C39.0084 74.8917 40.7825 74.7503 42.5118 74.4779C50.0238 73.2934 56.7161 69.6391 61.7281 64.3707V56.6829C61.7279 51.9924 57.9256 48.19 53.235 48.19Z" fill="#E2E2E2"/>
<path d="M30.2186 45.0854L24.2319 48.1907L30.717 58.728L37.2021 52.9936L30.2186 45.0854Z" fill="#E2E2E2"/>
<path d="M44.1858 45.0854L50.1724 48.1907L43.6875 58.728L37.2024 52.9936L44.1858 45.0854Z" fill="#C4C4C4"/>
<path d="M39.4903 9.67401H34.9132C32.6119 9.67401 30.3698 10.4026 28.5082 11.7557C24.9833 14.3175 23.3239 18.7333 24.2893 22.9827L25.4248 27.9795L27.8629 30.3357L29.2302 20.6118C32.4263 21.1348 35.7945 21.1686 37.2018 21.1557C38.6092 21.1686 41.9774 21.1347 45.1735 20.6118L46.5407 30.3357L48.9789 27.9795L50.1144 22.9827C51.0798 18.7335 49.4204 14.3175 45.8955 11.7557C44.0339 10.4026 41.7916 9.67401 39.4903 9.67401Z" fill="#595959"/>
<path d="M45.1735 20.6116L46.5408 30.3356L48.9789 27.9793L50.1144 22.9824C51.0798 18.7331 49.4204 14.3173 45.8955 11.7553C44.0339 10.4025 41.7918 9.67383 39.4905 9.67383H37.2024V21.1555C38.6097 21.1686 41.9776 21.1347 45.1735 20.6116Z" fill="#3F3F3F"/>
<path d="M65.9938 56.2386L64.5832 88.09C58.8997 90.6038 52.6125 92 46 92C30.9404 92 17.5698 84.7622 9.1784 73.5748L8.41113 56.2386H65.9938Z" fill="#595959"/>
<path d="M64.5834 88.09L65.9939 56.2386H37.2024V91.1587C40.0501 91.7103 42.9912 92 46.0001 92C52.6126 92 58.8998 90.6038 64.5834 88.09Z" fill="#3F3F3F"/>
<path d="M37.2019 75.8414C39.5051 75.8414 41.3722 73.9743 41.3722 71.671C41.3722 69.3678 39.5051 67.5007 37.2019 67.5007C34.8986 67.5007 33.0315 69.3678 33.0315 71.671C33.0315 73.9743 34.8986 75.8414 37.2019 75.8414Z" fill="#E2E2E2"/>
<path d="M37.2024 67.5007V75.8414C39.5054 75.8412 41.3724 73.9741 41.3724 71.671C41.3724 69.368 39.5054 67.5009 37.2024 67.5007Z" fill="#C4C4C4"/>
<path d="M79.7695 32.1585V26.761H77.0175C76.7883 25.9197 76.4544 25.1223 76.0309 24.382L77.9778 22.4351L74.1612 18.6185L72.2143 20.5654C71.474 20.1419 70.6765 19.808 69.8353 19.5786V16.8265H64.4378V19.5786C63.5965 19.8079 62.7991 20.1417 62.0587 20.5654L60.1118 18.6185L56.2953 22.4351L58.2422 24.382C57.8187 25.1223 57.4848 25.9197 57.2555 26.761H54.5034V32.1585H57.2555C57.4848 32.9998 57.8187 33.7972 58.2422 34.5376L56.2953 36.4845L60.1118 40.301L62.0587 38.3541C62.7991 38.7776 63.5965 39.1115 64.4378 39.3408V42.0929H69.8353V39.3408C70.6765 39.1115 71.4742 38.7776 72.2143 38.3541L74.1612 40.301L77.9778 36.4845L76.0309 34.5376C76.4544 33.7972 76.7883 32.9998 77.0175 32.1585H79.7695ZM67.1363 34.1784C64.5303 34.1784 62.4178 32.0658 62.4178 29.4598C62.4178 26.8538 64.5303 24.7412 67.1363 24.7412C69.7424 24.7412 71.8549 26.8538 71.8549 29.4598C71.8549 32.0658 69.7424 34.1784 67.1363 34.1784Z" fill="white"/>
<path d="M87.8046 52.8501V48.889H85.785C85.6168 48.2716 85.3717 47.6864 85.0608 47.1432L86.4895 45.7145L83.6887 42.9137L82.26 44.3424C81.7168 44.0315 81.1316 43.7866 80.5142 43.6183V41.5986H76.5532V43.6183C75.9357 43.7864 75.3505 44.0315 74.8073 44.3424L73.3786 42.9137L70.5778 45.7145L72.0065 47.1432C71.6957 47.6864 71.4507 48.2716 71.2824 48.889H69.2627V52.8501H71.2824C71.4506 53.4675 71.6957 54.0527 72.0065 54.5959L70.5778 56.0246L73.3786 58.8254L74.8073 57.3967C75.3505 57.7076 75.9357 57.9525 76.5532 58.1208V60.1405H80.5142V58.1208C81.1316 57.9526 81.7168 57.7076 82.26 57.3967L83.6887 58.8254L86.4895 56.0246L85.0608 54.5959C85.3717 54.0527 85.6168 53.4675 85.785 52.8501H87.8046ZM78.5339 54.034C76.7862 54.034 75.3696 52.6174 75.3696 50.8695C75.3696 49.1219 76.7862 47.7052 78.5339 47.7052C80.2815 47.7052 81.6983 49.1219 81.6983 50.8695C81.6981 52.6174 80.2815 54.034 78.5339 54.034Z" fill="#E2E2E2"/>
<path d="M79.7696 32.1585V26.761H77.0177C76.7885 25.9197 76.4546 25.1223 76.0311 24.382L77.978 22.4351L74.1614 18.6183L72.2145 20.5652C71.4742 20.1417 70.6767 19.8079 69.8354 19.5784V16.8265H67.1367V24.7412C69.7427 24.7412 71.8553 26.8538 71.8553 29.4598C71.8553 32.0658 69.7427 34.1784 67.1367 34.1784V42.0931H69.8354V39.341C70.6767 39.1117 71.4744 38.7778 72.2145 38.3543L74.1614 40.3012L77.978 36.4846L76.0311 34.5377C76.4546 33.7974 76.7885 33 77.0177 32.1587H79.7696V32.1585Z" fill="#E2E2E2"/>
<path d="M87.8047 52.8501V48.8892H85.785C85.6168 48.2718 85.3717 47.6866 85.0608 47.1434L86.4895 45.7147L83.6887 42.9139L82.2601 44.3426C81.7169 44.0317 81.1316 43.7866 80.5142 43.6184V41.5988H78.5337V47.7053C80.2813 47.7053 81.6982 49.1221 81.6982 50.8697C81.6982 52.6174 80.2813 54.0342 78.5337 54.0342V60.1407H80.5142V58.121C81.1316 57.9528 81.7169 57.7077 82.2601 57.3969L83.6887 58.8256L86.4895 56.0248L85.0608 54.5961C85.3717 54.0529 85.6168 53.4677 85.785 52.8502L87.8047 52.8501Z" fill="#C4C4C4"/>
</g>
<defs>
<clipPath id="clip0_385_21169">
<rect width="92" height="92" fill="white"/>
</clipPath>
</defs>
</svg>
