<svg width="94" height="94" viewBox="0 0 94 94" fill="none" xmlns="http://www.w3.org/2000/svg">
<path fill-rule="evenodd" clip-rule="evenodd" d="M51.5833 91.9805V29.2129L38.5484 23.6406L16.74 32.963V91.9805H51.5833Z" fill="#909CD1"/>
<path fill-rule="evenodd" clip-rule="evenodd" d="M38.5483 91.9805H51.5833V29.2129L38.5483 23.6406V91.9805Z" fill="#7986BF"/>
<path fill-rule="evenodd" clip-rule="evenodd" d="M91.2601 91.9805H49.3743V10.9721L70.3172 2.01953L91.2601 10.9721V91.9805Z" fill="#AEAED6"/>
<path fill-rule="evenodd" clip-rule="evenodd" d="M70.3172 91.9805H49.3743V10.9721L70.3172 2.01953V91.9805Z" fill="#D1D1F0"/>
<path fill-rule="evenodd" clip-rule="evenodd" d="M84.9226 16.1175C84.9226 15.5091 85.4158 15.0159 86.0242 15.0159C86.6326 15.0159 87.1257 15.5091 87.1257 16.1175V81.6998C87.1257 82.3082 86.6326 82.8013 86.0242 82.8013C85.4158 82.8013 84.9226 82.3082 84.9226 81.6998V16.1175ZM74.4512 11.6413C74.4512 11.0329 74.9443 10.5397 75.5527 10.5397C76.1612 10.5397 76.6543 11.0329 76.6543 11.6413V81.6998C76.6543 82.3082 76.1612 82.8013 75.5527 82.8013C74.9443 82.8013 74.4512 82.3082 74.4512 81.6998V11.6413ZM79.6869 13.8793C79.6869 13.2709 80.18 12.7777 80.7885 12.7777C81.3969 12.7777 81.89 13.2709 81.89 13.8793V81.6998C81.89 82.3082 81.3969 82.8013 80.7885 82.8013C80.18 82.8013 79.6869 82.3082 79.6869 81.6998V13.8793Z" fill="#F3F3FF"/>
<path fill-rule="evenodd" clip-rule="evenodd" d="M31.7397 91.9805H23.5488V71.9708L31.7397 71.1912V91.9805Z" fill="#F3F3FF"/>
<path fill-rule="evenodd" clip-rule="evenodd" d="M60.2897 59.3322V51.2809L64.7505 50.5919V58.9046L60.2897 59.3322ZM60.2897 46.6455V38.6006L64.7505 37.4998V45.8059L60.2897 46.6455ZM60.2897 33.9652V25.9139L64.7505 24.4013V32.714L60.2897 33.9652ZM60.2897 21.285L60.2885 13.7464L64.7503 11.8321V19.6222L60.2896 21.285H60.2897ZM52.3218 60.0903V52.5177L56.2802 51.9073V59.7111L52.3218 60.0903ZM52.3218 48.1512V40.5607L56.2817 39.5847V47.4072L52.3218 48.1512ZM52.3218 36.2065V28.6155L56.2817 27.2743V35.0975L52.3218 36.2067V36.2065ZM52.3218 24.2469V17.1602L56.2828 15.4623L56.2817 22.7783L52.3218 24.2469Z" fill="#AEAED6"/>
<path fill-rule="evenodd" clip-rule="evenodd" d="M61.5993 59.2066V51.0785L66.0601 50.3895V58.779L61.5993 59.2066ZM61.5993 46.3991V38.2775L66.0601 37.1766V45.5593L61.5993 46.3989V46.3991ZM61.5993 33.598V25.47L66.0601 23.9573V32.3468L61.5993 33.598ZM61.5993 20.7968L61.5982 13.1844L66.0601 11.2701V19.134L61.5993 20.7968ZM53.6313 59.9648V52.3159L57.59 51.7055V59.5859L53.6313 59.9648ZM53.6313 47.9051V40.2379L57.5913 39.2619V47.1612L53.6313 47.9051ZM53.6313 35.8393V28.1721L57.5913 26.8309V34.7302L53.6313 35.8393ZM53.6313 23.7612V16.5983L57.5924 14.9005L57.5913 22.2927L53.6313 23.7611V23.7612Z" fill="#F3F3FF"/>
<path fill-rule="evenodd" clip-rule="evenodd" d="M54.0977 91.9805V68.6398L55.7502 68.4825V91.9805H54.0977Z" fill="#AEAED6"/>
<path fill-rule="evenodd" clip-rule="evenodd" d="M63.9411 91.9805H55.7502V68.4825L63.9411 67.7029V91.9805Z" fill="#F3F3FF"/>
<path fill-rule="evenodd" clip-rule="evenodd" d="M53.254 69.8229C52.6504 69.8798 52.1148 69.4368 52.0579 68.8331C52.001 68.2295 52.444 67.6939 53.0477 67.637L65.4167 66.4596C66.0204 66.4027 66.5559 66.8457 66.6129 67.4494C66.6698 68.053 66.2267 68.5886 65.6231 68.6455L53.254 69.8229Z" fill="#AEAED6"/>
<path fill-rule="evenodd" clip-rule="evenodd" d="M26.7188 61.514V54.9542L30.4294 54.1884V61.0027L26.7188 61.514ZM26.7188 51.1749V44.6129L30.4294 43.4403V50.2608L26.7188 51.1749ZM26.7177 40.838V34.6955L30.4294 33.1227V39.5171L26.7177 40.8382V40.838ZM20.2014 62.4112V56.2915L23.4233 55.6298V61.97L20.2014 62.4112ZM20.2014 52.7832V46.6653L23.4233 45.6524V51.991L20.2014 52.7834V52.7832ZM20.2014 43.1467V37.4384L23.4253 36.0806L23.4244 42.0071L20.2014 43.1467Z" fill="#7986BF"/>
<path fill-rule="evenodd" clip-rule="evenodd" d="M27.9171 61.3488V54.7069L31.6277 53.9411V60.8375L27.9171 61.3488ZM27.9171 50.8801V44.2341L31.6277 43.0615V49.9659L27.9171 50.8801ZM27.916 40.4114V34.1875L31.6277 32.6147V39.0902L27.916 40.4114ZM21.3997 62.2458V56.044L24.6215 55.3823V61.8048L21.3997 62.246V62.2458ZM21.3997 52.4882V46.2864L24.6215 45.2735V51.696L21.3997 52.4883V52.4882ZM21.3997 42.7226V36.9302L24.6236 35.5722L24.6226 41.5829L21.3998 42.7224L21.3997 42.7226Z" fill="#F3F3FF"/>
<path fill-rule="evenodd" clip-rule="evenodd" d="M23.5487 91.9805H22.1802V72.1011L23.5487 71.9708V91.9805Z" fill="#7986BF"/>
<path d="M2.12134 87.3886H91.8787V91.9805H2.12134V87.3886Z" fill="#E6B17C"/>
<path d="M2.12134 89.6846H91.8787V91.9805H2.12134V89.6846Z" fill="#D19458"/>
<path d="M43 83.3659V89.3841C43 90.7101 41.9238 91.7863 40.5979 91.7863H4.40214C3.07623 91.7863 2 90.7101 2 89.3841V83.3745C2 76.8827 7.2606 71.6307 13.7438 71.6307H31.2476C37.7394 71.6307 43 76.8913 43 83.3659Z" fill="#FAB600"/>
<path d="M27.1237 69.5212V73.0943C27.1237 75.6514 25.0488 77.7264 22.5003 77.7264C19.9431 77.7264 17.8682 75.6514 17.8682 73.0943V69.5212C17.8682 66.9727 19.9431 64.8978 22.5003 64.8978C23.7659 64.8978 24.9282 65.4144 25.772 66.2495C26.6071 67.0933 27.1237 68.2384 27.1237 69.5212Z" fill="#FFB5B6"/>
<path d="M36.181 51.8023L35.1909 55.8661C34.6571 55.4614 10.4463 55.427 9.93827 55.78C8.40572 51.2512 8.89648 46.9549 12.0132 44.1309C15.0697 37.7166 20.8469 36.2701 27.9845 37.3033L24.9624 39.5419C29.4137 38.1385 33.8305 38.1557 35.8883 41.0744L34.8207 42.4864C34.4591 42.96 34.4074 43.5971 34.6743 44.1309L35.5009 45.7582C36.4307 47.6179 36.6804 49.7703 36.181 51.8023Z" fill="#495E66"/>
<path d="M33.271 51.4923V59.7491C33.271 65.6813 28.6303 70.7783 22.6981 70.8902C16.654 70.9935 11.7378 66.129 11.7378 60.1193V51.4923C11.7378 50.1319 12.2802 48.9007 13.167 48.0053C13.5975 47.5662 14.2433 47.4715 14.8201 47.6695C19.5469 49.2968 24.6439 49.4173 30.2145 47.6351C30.7827 47.4543 31.4026 47.5662 31.8245 47.9795C32.7113 48.8835 33.271 50.1233 33.271 51.4923Z" fill="#FFE4DC"/>
<path d="M36.4306 58.3801C36.4306 60.1365 35.0185 61.5486 33.2708 61.5486V55.2203C33.994 55.2203 34.6569 55.4614 35.1907 55.8747C35.3027 55.9608 35.406 56.0555 35.5093 56.1502C36.0776 56.7184 36.4306 57.5106 36.4306 58.3801Z" fill="#FFB5B6"/>
<path d="M11.7289 55.2203V61.5486C9.9811 61.5486 8.56909 60.1365 8.56909 58.3888V58.3801C8.56909 57.5019 8.92209 56.7184 9.49895 56.1416C9.63671 56.0038 9.77447 55.8833 9.93805 55.7714C10.4374 55.427 11.0573 55.2203 11.7289 55.2203Z" fill="#FFB5B6"/>
<path d="M19.5062 58H16.4938C16.2173 58 16 57.78 16 57.5C16 57.22 16.2173 57 16.4938 57H19.5062C19.7827 57 20 57.22 20 57.5C20 57.78 19.7827 58 19.5062 58Z" fill="#777777"/>
<path d="M28.5062 58H25.4938C25.2173 58 25 57.78 25 57.5C25 57.22 25.2173 57 25.4938 57H28.5062C28.7827 57 29 57.22 29 57.5C29 57.78 28.7728 58 28.5062 58Z" fill="#777777"/>
<path d="M22.5001 68.0575C21.4927 68.0575 20.494 67.6959 19.4953 66.9727C19.3059 66.835 19.2628 66.5594 19.4006 66.37C19.5383 66.1806 19.8052 66.1376 20.0032 66.2753C21.6822 67.4979 23.318 67.4979 24.9969 66.2753C25.1864 66.1376 25.4619 66.1806 25.5996 66.37C25.7374 66.5594 25.6943 66.835 25.5049 66.9727C24.5062 67.6959 23.4988 68.0575 22.5001 68.0575Z" fill="#FFB5B6"/>
<path d="M22.5001 63.2534C22.259 63.2534 22.0696 63.0639 22.0696 62.8229V61.1181C22.0696 60.877 22.259 60.6876 22.5001 60.6876C22.7411 60.6876 22.9306 60.877 22.9306 61.1181V62.8229C22.9306 63.0639 22.7325 63.2534 22.5001 63.2534Z" fill="#FFB5B6"/>
</svg>
