<svg width="70" height="83" viewBox="0 0 84 83" fill="none" xmlns="http://www.w3.org/2000/svg">
<path d="M0.0984116 33.7657C0.372887 34.6436 1.157 35.2017 1.99994 35.2017C2.20476 35.2017 2.41307 35.1688 2.61823 35.0994L9.89069 32.6449C10.9411 32.2904 11.5161 31.1185 11.1748 30.0272C10.8336 28.936 9.70554 28.3388 8.65479 28.6933L1.38231 31.1478C0.332054 31.5027 -0.242897 32.6745 0.0984116 33.7657ZM20.7241 12.8462C20.5839 12.8772 20.4441 12.892 20.3063 12.892C19.3822 12.892 18.5521 12.2228 18.3521 11.2462L16.762 3.47663C16.5324 2.35447 17.222 1.25118 18.3024 1.01263C19.3825 0.774068 20.4446 1.49043 20.6744 2.61276L22.2645 10.3823C22.4939 11.5045 21.8045 12.6076 20.7241 12.8462ZM9.61872 20.0391L3.04986 16.0996C2.09326 15.5259 1.76562 14.2554 2.31775 13.2617C2.87004 12.2678 4.09312 11.9274 5.04971 12.5011L11.6186 16.4406C12.5752 17.0144 12.9028 18.2849 12.3507 19.2786C11.9802 19.9451 11.3081 20.3176 10.6168 20.3176C10.2775 20.3176 9.93369 20.228 9.61872 20.0391ZM13.7872 45.5811C12.9866 47.0212 12.7752 48.7036 13.1915 50.3178C13.6079 51.9319 14.6009 53.279 15.9873 54.1105C16.9315 54.6767 17.9636 54.9458 18.9827 54.9458C20.6283 54.9458 22.2376 54.2419 23.3894 52.9573C32.1936 53.8324 40.9769 56.3723 49.5503 60.519L38.6888 71.8018C37.9077 72.6132 37.9077 73.9284 38.6888 74.7398L45.5644 81.8824C45.9394 82.2719 46.4482 82.4909 46.9785 82.4909C47.5088 82.4909 48.0176 82.2721 48.3926 81.8824L62.0194 67.727C63.8313 68.6622 65.7695 69.1098 67.686 69.1098C72.1135 69.1098 76.425 66.725 78.7933 62.4638L82.2876 56.1768C85.8167 49.827 83.7148 41.6784 77.6023 38.0123L68.2981 32.4322C59.5569 26.463 52.2826 19.286 46.6609 11.0885C47.463 8.37018 46.3894 5.33229 43.9204 3.8516C41.0498 2.13046 37.3665 3.15567 35.7095 6.13712L29.3148 17.6428L28.7895 17.3277C26.6836 16.0648 24.2233 15.7309 21.8615 16.3885C19.4997 17.0459 17.5293 18.6128 16.3136 20.8003C15.0978 22.9878 14.7767 25.5438 15.4096 27.997C16.0424 30.4505 17.5508 32.4973 19.6567 33.7602L20.1818 34.0751L13.7872 45.5811ZM27.3151 21.2412L22.1818 30.4771L21.6567 30.1622C20.4761 29.4542 19.6295 28.3034 19.2732 26.9221C18.9169 25.5408 19.096 24.1046 19.7776 22.8781C20.4593 21.6517 21.567 20.7723 22.8967 20.4021C24.2265 20.0322 25.6091 20.2183 26.7898 20.9262L27.3151 21.2412ZM64.5822 34.8441L52.1558 57.2022C43.5169 52.9057 34.6542 50.1684 25.7439 49.0441L44.575 15.1625C49.9674 22.616 56.6806 29.2205 64.5822 34.8441ZM63.3071 63.7329L55.6852 59.1617L67.9805 37.0396L75.6026 41.6108C79.8053 44.1315 81.2503 49.7338 78.824 54.0997L75.3298 60.3867C72.9033 64.7523 67.5098 66.2535 63.3071 63.7329ZM42.9311 73.2709L53.2824 62.5182L58.4143 65.596L46.9785 77.4755L42.9311 73.2709ZM17.251 47.6585L39.1736 8.21472C39.728 7.21704 40.9604 6.87391 41.9209 7.45005C42.8813 8.02602 43.2114 9.30641 42.657 10.3041L20.7346 49.7477C20.1801 50.7454 18.9475 51.0883 17.9871 50.5124C17.5258 50.2357 17.1948 49.7847 17.0548 49.2425C16.915 48.7003 16.9847 48.1377 17.251 47.6585Z" fill="#00517F" fill-opacity="0.07"/>
</svg>
