<svg width="40" height="45" viewBox="0 0 45 45" fill="none" xmlns="http://www.w3.org/2000/svg">
<circle cx="22.5" cy="22.5" r="22.5" fill="#FAB600"/>
<path d="M24.9381 17C25.9149 17.1906 26.8125 17.6683 27.5162 18.3719C28.2199 19.0756 28.6976 19.9733 28.8881 20.95M24.9381 13C26.9674 13.2254 28.8597 14.1342 30.3044 15.577C31.749 17.0198 32.6601 18.911 32.8881 20.94M31.8881 28.92V31.92C31.8892 32.1985 31.8322 32.4742 31.7206 32.7293C31.6091 32.9845 31.4454 33.2136 31.2402 33.4019C31.035 33.5901 30.7927 33.7335 30.5289 33.8227C30.265 33.9119 29.9855 33.9451 29.7081 33.92C26.631 33.5856 23.6751 32.5341 21.0781 30.85C18.6619 29.3147 16.6135 27.2662 15.0781 24.85C13.3881 22.2412 12.3364 19.271 12.0081 16.18C11.9831 15.9035 12.016 15.6248 12.1046 15.3616C12.1932 15.0985 12.3357 14.8567 12.5229 14.6516C12.7101 14.4466 12.9379 14.2827 13.1919 14.1705C13.4459 14.0583 13.7205 14.0003 13.9981 14H16.9981C17.4834 13.9952 17.9539 14.1671 18.3219 14.4835C18.6898 14.8 18.9302 15.2394 18.9981 15.72C19.1247 16.6801 19.3596 17.6227 19.6981 18.53C19.8327 18.8879 19.8618 19.2769 19.782 19.6509C19.7023 20.0248 19.517 20.3681 19.2481 20.64L17.9781 21.91C19.4017 24.4135 21.4746 26.4864 23.9781 27.91L25.2481 26.64C25.52 26.3711 25.8633 26.1858 26.2372 26.1061C26.6112 26.0263 27.0002 26.0555 27.3581 26.19C28.2654 26.5286 29.2081 26.7634 30.1681 26.89C30.6539 26.9585 31.0975 27.2032 31.4146 27.5775C31.7318 27.9518 31.9003 28.4296 31.8881 28.92Z" stroke="black" stroke-width="2" stroke-linecap="round" stroke-linejoin="round"/>
</svg>
