<svg width="37" height="37" viewBox="0 0 37 37" fill="none" xmlns="http://www.w3.org/2000/svg">
<path d="M13.104 22.3542H11.5623V17.7292H13.104V22.3542ZM10.0207 17.7292H8.479V22.3542H10.0207V17.7292ZM16.1873 17.7292H14.6457V22.3542H16.1873V17.7292ZM19.2707 17.7292H17.729V22.3542H19.2707V17.7292ZM13.104 5.39585H11.5623V10.0209H13.104V5.39585ZM10.0207 5.39585H8.479V10.0209H10.0207V5.39585ZM16.1873 5.39585H14.6457V10.0209H16.1873V5.39585ZM19.2707 5.39585H17.729V10.0209H19.2707V5.39585ZM13.104 11.5625H11.5623V16.1875H13.104V11.5625ZM10.0207 11.5625H8.479V16.1875H10.0207V11.5625ZM16.1873 11.5625H14.6457V16.1875H16.1873V11.5625ZM19.2707 11.5625H17.729V16.1875H19.2707V11.5625ZM26.2082 25.4375H24.6665V30.0625H26.2082V25.4375ZM29.2915 25.4375H27.7498V30.0625H29.2915V25.4375ZM26.2082 19.2709H24.6665V23.8959H26.2082V19.2709ZM29.2915 19.2709H27.7498V23.8959H29.2915V19.2709ZM26.2082 13.1042H24.6665V17.7292H26.2082V13.1042ZM29.2915 13.1042H27.7498V17.7292H29.2915V13.1042ZM35.4582 33.9167C35.4582 34.3428 35.1134 34.6875 34.6873 34.6875H31.604H22.354H16.9582H10.7915H5.39567H2.31234C1.88665 34.6875 1.5415 34.3428 1.5415 33.9167C1.5415 33.4906 1.88665 33.1459 2.31234 33.1459H4.62484V2.31252C4.62484 1.88683 4.96998 1.54169 5.39567 1.54169H22.354C22.7801 1.54169 23.1248 1.88683 23.1248 2.31252V8.47919H31.604C32.0301 8.47919 32.3748 8.82433 32.3748 9.25002V33.1459H34.6873C35.1134 33.1459 35.4582 33.4906 35.4582 33.9167ZM16.1873 26.2084H11.5623V33.1459H16.1873V26.2084ZM21.5832 3.08335H6.1665V33.1459H10.0207V25.4375C10.0207 25.0115 10.3658 24.6667 10.7915 24.6667H16.9582C17.3839 24.6667 17.729 25.0115 17.729 25.4375V33.1459H21.5832V9.25002V3.08335ZM30.8332 10.0209H23.1248V33.1459H30.8332V10.0209Z" fill="black"/>
</svg>
