<svg width="20" height="20" viewBox="0 0 26 26" fill="none" xmlns="http://www.w3.org/2000/svg">
<path d="M11.9165 4.33301H4.33317C3.75853 4.33301 3.20743 4.56128 2.80111 4.96761C2.39478 5.37394 2.1665 5.92504 2.1665 6.49967V21.6663C2.1665 22.241 2.39478 22.7921 2.80111 23.1984C3.20743 23.6047 3.75853 23.833 4.33317 23.833H19.4998C20.0745 23.833 20.6256 23.6047 21.0319 23.1984C21.4382 22.7921 21.6665 22.241 21.6665 21.6663V14.083" stroke="black" stroke-width="2" stroke-linecap="round" stroke-linejoin="round"/>
<path d="M20.0415 2.70825C20.4725 2.27728 21.057 2.03516 21.6665 2.03516C22.276 2.03516 22.8605 2.27728 23.2915 2.70825C23.7225 3.13923 23.9646 3.72376 23.9646 4.33325C23.9646 4.94275 23.7225 5.52728 23.2915 5.95825L12.9998 16.2499L8.6665 17.3333L9.74984 12.9999L20.0415 2.70825Z" stroke="black" stroke-width="2" stroke-linecap="round" stroke-linejoin="round"/>
</svg>
