<svg width="16" height="13" viewBox="0 0 20 13" fill="none" xmlns="http://www.w3.org/2000/svg">
<path d="M10 3.70312C9.33696 3.70312 8.70107 3.96308 8.23223 4.4258C7.76339 4.88852 7.5 5.51611 7.5 6.17049C7.5 6.82488 7.76339 7.45247 8.23223 7.91519C8.70107 8.37791 9.33696 8.63786 10 8.63786C10.663 8.63786 11.2989 8.37791 11.7678 7.91519C12.2366 7.45247 12.5 6.82488 12.5 6.17049C12.5 5.51611 12.2366 4.88852 11.7678 4.4258C11.2989 3.96308 10.663 3.70312 10 3.70312Z" fill="#FAB600"/>
<path fill-rule="evenodd" clip-rule="evenodd" d="M10 0C7.24421 0 4.76632 0.997387 2.98105 2.23297C2.08632 2.85171 1.35263 3.53878 0.837895 4.20686C0.332632 4.86356 0 5.55253 0 6.16842C0 6.78432 0.333684 7.47328 0.837895 8.12903C1.35368 8.79807 2.08632 9.48514 2.98105 10.1029C4.76632 11.3404 7.24421 12.3368 10 12.3368C12.7558 12.3368 15.2337 11.3395 17.0189 10.1039C17.9137 9.48514 18.6474 8.79807 19.1611 8.12998C19.6663 7.47328 20 6.78432 20 6.16842C20 5.55253 19.6663 4.86356 19.1611 4.20781C18.6474 3.53878 17.9137 2.85171 17.0189 2.23392C15.2337 0.996438 12.7558 0 10 0ZM6.05263 6.16842C6.05263 5.2246 6.46851 4.31943 7.20879 3.65204C7.94906 2.98465 8.95309 2.60972 10 2.60972C11.0469 2.60972 12.0509 2.98465 12.7912 3.65204C13.5315 4.31943 13.9474 5.2246 13.9474 6.16842C13.9474 7.11225 13.5315 8.01742 12.7912 8.68481C12.0509 9.3522 11.0469 9.72713 10 9.72713C8.95309 9.72713 7.94906 9.3522 7.20879 8.68481C6.46851 8.01742 6.05263 7.11225 6.05263 6.16842Z" fill="#FAB600"/>
</svg>
