<svg width="191" height="191" viewBox="0 0 191 191" fill="none" xmlns="http://www.w3.org/2000/svg">
<g clip-path="url(#clip0_1340_506)">
<path d="M118.795 104.175C119.764 106.356 121.56 108.063 123.788 108.919C126.016 109.776 128.493 109.713 130.674 108.744C132.856 107.774 134.562 105.978 135.419 103.75C136.276 101.522 136.213 99.0454 135.243 96.8642C134.274 94.6829 132.478 92.9761 130.25 92.1193C128.022 91.2624 125.545 91.3256 123.364 92.295C121.183 93.2644 119.476 95.0606 118.619 97.2885C117.762 99.5163 117.825 101.993 118.795 104.175Z" stroke="#FAB600" stroke-width="3" stroke-linecap="round" stroke-linejoin="round"/>
<path d="M101.279 64.7042C70.5997 75.8641 44.1161 82.3422 31.0693 84.0698L53.1491 133.75C58.0105 144.689 60.44 150.155 65.8205 153.102C71.201 156.049 76.4219 155.238 86.8637 153.618C103.728 150.995 120.639 146.381 135.432 141.461C150.776 136.362 158.442 133.815 161.647 126.488C164.854 119.167 161.332 111.244 154.295 95.4093L149.387 84.3667C142.552 68.9872 139.136 61.3002 132.591 58.4966C126.046 55.693 117.793 58.6915 101.279 64.7042Z" stroke="url(#paint0_linear_1340_506)" stroke-width="3" stroke-linecap="round" stroke-linejoin="round"/>
<path d="M116.136 59.3951C114.735 50.6743 110.307 35.6433 101.588 31.0809C96.066 28.184 90.995 30.9565 86.0409 33.6967C59.9935 48.1292 42.9935 61.4823 33.7529 69.5287C29.776 72.9902 28.7421 78.8337 30.9718 83.8505" stroke="#FAB600" stroke-width="3" stroke-linecap="round" stroke-linejoin="round"/>
</g>
<defs>
<linearGradient id="paint0_linear_1340_506" x1="80.4153" y1="62.1387" x2="70.5361" y2="163.036" gradientUnits="userSpaceOnUse">
<stop offset="0.514854" stop-color="#FAB600"/>
<stop offset="1" stop-color="#CF9700"/>
</linearGradient>
<clipPath id="clip0_1340_506">
<rect width="144" height="144" fill="white" transform="translate(0 58.4829) rotate(-23.9621)"/>
</clipPath>
</defs>
</svg>
