<svg width="43" height="44" viewBox="0 0 43 44" fill="none" xmlns="http://www.w3.org/2000/svg">
<path d="M34.0417 6.34668H8.95833C6.97931 6.34668 5.375 7.95099 5.375 9.93001V35.0133C5.375 36.9924 6.97931 38.5967 8.95833 38.5967H34.0417C36.0207 38.5967 37.625 36.9924 37.625 35.0133V9.93001C37.625 7.95099 36.0207 6.34668 34.0417 6.34668Z" stroke="#BABEC6" stroke-width="2" stroke-linecap="round" stroke-linejoin="round"/>
<path d="M15.229 18.8887C16.7133 18.8887 17.9165 17.6854 17.9165 16.2012C17.9165 14.7169 16.7133 13.5137 15.229 13.5137C13.7447 13.5137 12.5415 14.7169 12.5415 16.2012C12.5415 17.6854 13.7447 18.8887 15.229 18.8887Z" stroke="#BABEC6" stroke-width="2" stroke-linecap="round" stroke-linejoin="round"/>
<path d="M37.6252 27.847L28.6668 18.8887L8.9585 38.597" stroke="#BABEC6" stroke-width="2" stroke-linecap="round" stroke-linejoin="round"/>
</svg>
