<svg width="42" height="43" viewBox="0 0 42 43" fill="none" xmlns="http://www.w3.org/2000/svg">
<path d="M24.2406 3.58301H10.6395C9.73772 3.58301 8.87285 3.96054 8.23517 4.63254C7.5975 5.30455 7.23926 6.21598 7.23926 7.16634V35.833C7.23926 36.7834 7.5975 37.6948 8.23517 38.3668C8.87285 39.0388 9.73772 39.4163 10.6395 39.4163H31.0411C31.9429 39.4163 32.8078 39.0388 33.4455 38.3668C34.0832 37.6948 34.4414 36.7834 34.4414 35.833V14.333L24.2406 3.58301Z" stroke="#BABEC6" stroke-width="2" stroke-linecap="round" stroke-linejoin="round"/>
<path d="M24.2407 3.58301V14.333H34.4415" stroke="#BABEC6" stroke-width="2" stroke-linecap="round" stroke-linejoin="round"/>
<path d="M27.6411 23.292H14.04" stroke="#BABEC6" stroke-width="2" stroke-linecap="round" stroke-linejoin="round"/>
<path d="M27.6411 30.458H14.04" stroke="#BABEC6" stroke-width="2" stroke-linecap="round" stroke-linejoin="round"/>
<path d="M17.4403 16.125H15.7402H14.04" stroke="#BABEC6" stroke-width="2" stroke-linecap="round" stroke-linejoin="round"/>
</svg>
