<svg width="24" height="24" viewBox="0 0 24 24" fill="none" xmlns="http://www.w3.org/2000/svg">
<path d="M14.1088 2.20327C13.5215 2.07752 13.0008 2.55123 13.0008 3.15188V3.15188C13.0008 3.66487 13.3859 4.09043 13.885 4.20902C17.8001 5.1393 20.4638 8.88128 19.9608 12.9703C19.5385 16.3121 17.0933 19.0217 13.8788 19.776C13.3837 19.8922 13.0008 20.3134 13.0008 20.8219V20.8219C13.0008 21.4153 13.5154 21.8832 14.096 21.7602C19.0214 20.7169 22.4636 16.128 21.9508 11.0003C21.5365 6.62766 18.3089 3.10246 14.1088 2.20327ZM11.0008 3.17807C11.0008 2.57909 10.4826 2.10625 9.89647 2.22978C8.71438 2.47891 7.58522 2.93964 6.56857 3.60006C6.06407 3.92779 6.02753 4.62949 6.44555 5.06213V5.06213C6.81671 5.44627 7.4161 5.47749 7.86936 5.19488C8.56884 4.75875 9.33378 4.43329 10.1355 4.22996C10.6258 4.10561 11.0008 3.68391 11.0008 3.17807V3.17807ZM5.05246 6.46195C4.62816 6.03766 3.92617 6.06968 3.5995 6.57301C2.94073 7.58806 2.47357 8.71549 2.22134 9.89902C2.09682 10.4833 2.56832 11.0003 3.16573 11.0003V11.0003C3.67245 11.0003 4.09422 10.6231 4.21541 10.1311C4.41444 9.32305 4.73665 8.54939 5.17409 7.83992C5.44434 7.40162 5.41656 6.82606 5.05246 6.46195V6.46195ZM3.17565 13.0003C2.57913 13.0003 2.10928 13.5178 2.23514 14.1009C2.4904 15.2834 2.9568 16.4079 3.61063 17.422C3.93602 17.9267 4.63923 17.9592 5.06235 17.5331V17.5331C5.42149 17.1715 5.44911 16.6024 5.18194 16.1683C4.74414 15.4571 4.42038 14.6815 4.22252 13.8701C4.1026 13.3783 3.68184 13.0003 3.17565 13.0003V13.0003ZM7.80893 18.8644C7.38752 18.603 6.83505 18.6249 6.47696 18.9679V18.9679C6.04711 19.3797 6.06964 20.0779 6.56657 20.4057C7.58197 21.0754 8.71123 21.5543 9.89851 21.8187C10.4811 21.9485 11.0008 21.4795 11.0008 20.8826V20.8826C11.0008 20.378 10.624 19.9586 10.1337 19.8392C9.31221 19.6392 8.52748 19.3102 7.80893 18.8644ZM11.7508 7.00027C12.165 7.00027 12.5008 7.33606 12.5008 7.75027V11.721C12.5008 12.0491 12.6738 12.3529 12.9559 12.5203L16.3754 14.5492C16.7195 14.7534 16.8305 15.1995 16.6222 15.5412V15.5412C16.4166 15.8783 15.9776 15.9864 15.639 15.7832L11.5241 13.3143C11.1994 13.1195 11.0008 12.7686 11.0008 12.39V7.75027C11.0008 7.33606 11.3366 7.00027 11.7508 7.00027V7.00027Z" fill="#FAB600"/>
</svg>
