<svg width="23" height="26" viewBox="0 0 28 28" fill="none" xmlns="http://www.w3.org/2000/svg">
<rect width="28" height="28" rx="6" fill="#FAB600" fill-opacity="0.22"/>
<path d="M14 12C13.4696 12 12.9609 12.2107 12.5858 12.5858C12.2107 12.9609 12 13.4696 12 14C12 14.5304 12.2107 15.0391 12.5858 15.4142C12.9609 15.7893 13.4696 16 14 16C14.5304 16 15.0391 15.7893 15.4142 15.4142C15.7893 15.0391 16 14.5304 16 14C16 13.4696 15.7893 12.9609 15.4142 12.5858C15.0391 12.2107 14.5304 12 14 12Z" fill="#FAB600"/>
<path fill-rule="evenodd" clip-rule="evenodd" d="M14 9C11.7954 9 9.81305 9.80846 8.38484 10.81C7.66905 11.3115 7.08211 11.8685 6.67032 12.41C6.26611 12.9423 6 13.5008 6 14C6 14.4992 6.26695 15.0577 6.67032 15.5892C7.08295 16.1315 7.66905 16.6885 8.38484 17.1892C9.81305 18.1923 11.7954 19 14 19C16.2046 19 18.1869 18.1915 19.6152 17.19C20.3309 16.6885 20.9179 16.1315 21.3288 15.59C21.7331 15.0577 22 14.4992 22 14C22 13.5008 21.7331 12.9423 21.3288 12.4108C20.9179 11.8685 20.3309 11.3115 19.6152 10.8108C18.1869 9.80769 16.2046 9 14 9ZM10.8421 14C10.8421 13.235 11.1748 12.5012 11.767 11.9603C12.3593 11.4193 13.1625 11.1154 14 11.1154C14.8375 11.1154 15.6407 11.4193 16.233 11.9603C16.8252 12.5012 17.1579 13.235 17.1579 14C17.1579 14.765 16.8252 15.4988 16.233 16.0397C15.6407 16.5807 14.8375 16.8846 14 16.8846C13.1625 16.8846 12.3593 16.5807 11.767 16.0397C11.1748 15.4988 10.8421 14.765 10.8421 14Z" fill="#FAB600"/>
</svg>
