<svg width="50" height="46" viewBox="0 0 50 46" fill="none" xmlns="http://www.w3.org/2000/svg">
<path d="M45.125 33.3636V41.2045C45.125 41.8977 44.8221 42.5625 44.2829 43.0527C43.7438 43.5428 43.0125 43.8182 42.25 43.8182H7.75C6.22501 43.8182 4.76247 43.2675 3.68414 42.2871C2.6058 41.3068 2 39.9773 2 38.5909V7.22727M39.375 12.4545V4.61364C39.375 3.92046 39.0721 3.25567 38.5329 2.76552C37.9938 2.27536 37.2625 2 36.5 2H7.75C6.22501 2 4.76247 2.55073 3.68414 3.53103C2.6058 4.51134 2 5.84091 2 7.22727C2 8.61363 2.6058 9.94321 3.68414 10.9235C4.76247 11.9038 6.22501 12.4545 7.75 12.4545H42.25C43.0125 12.4545 43.7438 12.7299 44.2829 13.2201C44.8221 13.7102 45.125 14.375 45.125 15.0682V22.9091L39.375 12.4545Z" stroke="#00517F" stroke-opacity="0.07" stroke-width="2.5" stroke-linecap="round" stroke-linejoin="round"/>
<path d="M48 22.9091V33.3637H36.5C34.975 33.3637 33.5125 32.8129 32.4341 31.8326C31.3558 30.8523 30.75 29.5228 30.75 28.1364C30.75 26.75 31.3558 25.4205 32.4341 24.4402C33.5125 23.4598 34.975 22.9091 36.5 22.9091H48Z" stroke="#00517F" stroke-opacity="0.07" stroke-width="2.5" stroke-linecap="round" stroke-linejoin="round"/>
</svg>
