<svg width="142" height="142" viewBox="0 0 142 142" fill="none" xmlns="http://www.w3.org/2000/svg">
<mask id="mask0_663_284" style="mask-type:luminance" maskUnits="userSpaceOnUse" x="0" y="0" width="142" height="142">
<path d="M140.402 140.402V1.26508H1.265V140.402H140.402Z" fill="white" stroke="white" stroke-width="2.53"/>
</mask>
<g mask="url(#mask0_663_284)">
<path d="M94.4441 35.1667L94.4442 35.1669C94.6797 35.9656 94.223 36.8044 93.4239 37.0399L93.4238 37.0399C92.6251 37.2754 91.7865 36.8186 91.5509 36.0197L94.4441 35.1667ZM94.4441 35.1667C94.2086 34.3678 93.3701 33.911 92.5711 34.1465M94.4441 35.1667L92.5711 34.1465M92.5711 34.1465C91.7722 34.3819 91.3154 35.2204 91.5509 36.0197L92.5711 34.1465Z" fill="black" stroke="#BABEC6" stroke-width="2.53"/>
<path d="M60.9883 59.4511L30.7962 68.0242L23.9375 43.8706L54.1297 35.2972L60.9883 59.4511Z" stroke="#BABEC6" stroke-width="2.53" stroke-miterlimit="10" stroke-linecap="round" stroke-linejoin="round"/>
<path d="M24.999 49.3789L12.0625 53.0523L15.8679 66.4536L28.8043 62.7802" stroke="#BABEC6" stroke-width="2.53" stroke-miterlimit="10" stroke-linecap="round" stroke-linejoin="round"/>
<path d="M89.7004 23.7261L85.4706 8.83005L54.1299 35.2974" stroke="#BABEC6" stroke-width="2.53" stroke-miterlimit="10" stroke-linecap="round" stroke-linejoin="round"/>
<path d="M60.9873 59.4512L101.561 65.4983L96.4535 47.5124" stroke="#BABEC6" stroke-width="2.53" stroke-miterlimit="10" stroke-linecap="round" stroke-linejoin="round"/>
<path d="M47.4986 63.2059L35.46 66.6997L41.9459 77.688C43.3554 80.0759 46.2039 81.2056 48.8668 80.4326C52.6744 79.3277 54.4187 74.9294 52.4035 71.515L47.4986 63.2059Z" stroke="#BABEC6" stroke-width="2.53" stroke-miterlimit="10" stroke-linecap="round" stroke-linejoin="round"/>
<path d="M125.924 27.9755L119.362 29.8276" stroke="#BABEC6" stroke-width="2.53" stroke-miterlimit="10" stroke-linecap="round" stroke-linejoin="round"/>
<path d="M110.039 2.90527L105.282 7.79028" stroke="#BABEC6" stroke-width="2.53" stroke-miterlimit="10" stroke-linecap="round" stroke-linejoin="round"/>
<path d="M125.492 57.6514L118.883 55.9743" stroke="#BABEC6" stroke-width="2.53" stroke-miterlimit="10" stroke-linecap="round" stroke-linejoin="round"/>
<path d="M96.5635 111.059V93.4645L108.459 110.69C108.68 111.008 108.916 110.852 108.916 110.465L108.751 93.4316" stroke="#BABEC6" stroke-width="2.53" stroke-miterlimit="10" stroke-linecap="round" stroke-linejoin="round"/>
<path d="M56.2549 110.921L59.353 93.7556C59.4305 93.3536 59.9911 93.3163 60.1217 93.7042L65.1616 110.788C65.2839 111.152 65.7994 111.149 65.9178 110.784L70.786 93.7069C70.9124 93.3176 71.473 93.3495 71.5549 93.7504L74.8365 110.921" stroke="#BABEC6" stroke-width="2.53" stroke-miterlimit="10" stroke-linecap="round" stroke-linejoin="round"/>
<path d="M86.0195 93.4316V111.059" stroke="#BABEC6" stroke-width="2.53" stroke-miterlimit="10" stroke-linecap="round" stroke-linejoin="round"/>
<path d="M130.622 94.9368C129.216 93.9863 127.52 93.4316 125.694 93.4316C120.827 93.4316 116.881 97.3775 116.881 102.245C116.881 107.113 120.827 111.059 125.694 111.059C130.562 111.059 133.303 107.113 133.303 102.245H128.03" stroke="#BABEC6" stroke-width="2.53" stroke-miterlimit="10" stroke-linecap="round" stroke-linejoin="round"/>
<path d="M22.1066 94.937C20.6999 93.9866 19.0043 93.4318 17.1787 93.4318C12.3111 93.4318 8.36523 97.3777 8.36523 102.245C8.36523 107.113 12.3111 111.059 17.1787 111.059C19.1557 111.059 20.7818 110.408 22.0159 109.309C22.2713 109.082 22.51 108.835 22.7314 108.571" stroke="#BABEC6" stroke-width="2.53" stroke-miterlimit="10" stroke-linecap="round" stroke-linejoin="round"/>
<path d="M48.306 102.245C48.306 107.113 44.3601 111.059 39.4922 111.059C34.6246 111.059 30.6787 107.113 30.6787 102.245C30.6787 97.3777 34.6246 93.4315 39.4922 93.4315C44.3601 93.4315 48.306 97.3777 48.306 102.245Z" stroke="#BABEC6" stroke-width="2.53" stroke-miterlimit="10" stroke-linecap="round" stroke-linejoin="round"/>
<path d="M101.306 138.761V121.167L113.201 138.393C113.422 138.711 113.658 138.555 113.658 138.167L113.493 121.134" stroke="#BABEC6" stroke-width="2.53" stroke-miterlimit="10" stroke-linecap="round" stroke-linejoin="round"/>
<path d="M39.4283 123.094C39.4283 123.094 35.8526 120.288 32.1227 121.411C28.6978 122.443 28.2186 126.392 30.6964 128.008C30.6964 128.008 33.1277 129.092 35.8246 130.087C42.3161 132.481 39.5198 138.761 34.2939 138.761C31.677 138.761 29.4806 137.615 28.1514 136.149" stroke="#BABEC6" stroke-width="2.53" stroke-miterlimit="10" stroke-linecap="round" stroke-linejoin="round"/>
<path d="M66.5267 129.948C66.5267 134.816 62.5808 138.762 57.7129 138.762C52.8456 138.762 48.8994 134.816 48.8994 129.948C48.8994 125.08 52.8456 121.134 57.7129 121.134C62.5808 121.134 66.5267 125.08 66.5267 129.948Z" stroke="#BABEC6" stroke-width="2.53" stroke-miterlimit="10" stroke-linecap="round" stroke-linejoin="round"/>
<path d="M92.3216 129.948C92.3216 134.816 88.3757 138.762 83.5078 138.762C78.6403 138.762 74.6943 134.816 74.6943 129.948C74.6943 125.08 78.6403 121.134 83.5078 121.134C88.3757 121.134 92.3216 125.08 92.3216 129.948Z" stroke="#BABEC6" stroke-width="2.53" stroke-miterlimit="10" stroke-linecap="round" stroke-linejoin="round"/>
</g>
</svg>
