<svg width="44" height="39" viewBox="0 0 44 39" fill="none" xmlns="http://www.w3.org/2000/svg">
<path d="M20.6016 33.5974C19.1802 33.5958 17.936 32.6432 17.5639 31.2713C17.5512 31.2237 17.5512 31.1766 17.5412 31.1286L8.88649 26.4519C8.65208 26.3176 8.3866 26.247 8.11651 26.2478C8.01561 26.2478 7.91471 26.257 7.81534 26.2758C7.67915 26.2996 7.54679 26.3426 7.42249 26.4032C7.13974 26.5375 6.90418 26.7546 6.74765 27.0262C6.61068 27.2656 6.53817 27.5361 6.53702 27.8119C6.53319 28.374 6.83128 28.895 7.31813 29.1758L21.6425 37.7473C22.0177 37.9821 22.4516 38.1068 22.8943 38.1072H33.9649C34.2607 38.1068 34.5538 38.0508 34.8293 37.9422L37.7143 36.8028V28.3383L34.9052 26.6564C34.5396 26.4373 34.121 26.3215 33.6944 26.3215H30.6828C30.2032 26.3215 29.7256 26.3844 29.2625 26.5083L20.193 28.9349C19.5566 29.1114 19.0958 29.6631 19.0356 30.3206V30.5777C19.0409 30.6759 19.0559 30.7733 19.0812 30.8685C19.268 31.5533 19.8915 32.0279 20.6016 32.026C20.6971 32.0179 21.1594 31.9235 21.5178 31.841L29.6546 29.6638L30.0597 31.1819L21.8964 33.366C21.4721 33.48 21.039 33.5575 20.6016 33.5974Z" fill="#01A365"/>
<path d="M39.2858 25.5358H44.0001V38.1072H39.2858V25.5358Z" fill="#01A365"/>
<path d="M0 0H4.71428V14.1429H0V0Z" fill="#01A365"/>
<path d="M8.96671 12.3639C10.039 13.0759 11.2855 13.4822 12.5715 13.5394V9.7428C11.991 9.53103 11.4485 9.22641 10.9655 8.84084L10.5051 8.46755L11.495 7.24678L11.9507 7.61585C13.5076 8.86041 15.7274 8.82741 17.2466 7.53758L17.7964 7.06608L22.432 11.7017C23.0489 12.3156 24.0464 12.3136 24.6607 11.6971C25.2745 11.0802 25.2726 10.0827 24.6557 9.46887L19.1112 3.91823L20.2218 2.80757L22.129 4.71431H28.6126L25.5089 1.61058C24.48 0.575881 23.0793 -0.00419728 21.6198 2.28664e-05H11.7416C11.376 2.28664e-05 11.0154 0.0855767 10.6881 0.249011L8.92643 1.12987C8.33752 1.42336 7.68455 1.56493 7.02659 1.54153L6.28577 1.51505V11.7857H8.09276L8.96671 12.3639Z" fill="#01A365"/>
<path d="M14.1428 10.072V23.5715H44V6.28577H23.7003L25.2717 7.85719H38.5V8.64291C38.5 10.3785 39.9072 11.7858 41.6428 11.7858H42.4285V18.0715H41.6428C39.9072 18.0715 38.5 19.4787 38.5 21.2143V22H19.6428V21.2143C19.6428 19.4787 18.2356 18.0715 16.5 18.0715H15.7143V11.7858H16.5C17.4959 11.785 18.4324 11.3112 19.0228 10.509L17.6824 9.16851C16.6331 9.84872 15.3897 10.1664 14.1428 10.072Z" fill="#01A365"/>
<path d="M23.5496 13.7258C22.7179 13.7278 21.9195 13.4005 21.329 12.8151L20.1436 11.6284C19.4242 12.5116 18.4087 13.1028 17.2858 13.2919V16.5652C19.2627 16.9032 20.8111 18.4516 21.1491 20.4286H36.9938C37.3318 18.4516 38.8802 16.9032 40.8572 16.5652V13.2919C38.8802 12.9539 37.3318 11.4055 36.9938 9.42859H26.4723C26.8478 10.3551 26.7519 11.4063 26.2148 12.2492C27.6558 10.723 30.0425 10.5995 31.6335 11.9691C33.2249 13.3387 33.4581 15.717 32.1633 17.3694C30.8689 19.0221 28.5037 19.3647 26.793 18.1474C25.0827 16.9305 24.6315 14.5837 25.7683 12.8189C25.1763 13.4005 24.3794 13.7262 23.5496 13.7258Z" fill="#01A365"/>
<path d="M31.4285 14.9286C31.4285 16.2303 30.3731 17.2857 29.0714 17.2857C27.7697 17.2857 26.7142 16.2303 26.7142 14.9286C26.7142 13.6268 27.7697 12.5714 29.0714 12.5714C30.3731 12.5714 31.4285 13.6268 31.4285 14.9286Z" fill="#01A365"/>
</svg>
