<svg width="44" height="44" viewBox="0 0 44 44" fill="none" xmlns="http://www.w3.org/2000/svg">
<path d="M33 10.3125C33 8.9925 32.78 7.7275 32.3675 6.545C35.1863 8.04375 37.125 11.0275 37.125 14.4375C37.125 19.36 33.11 23.375 28.1875 23.375C26.345 23.375 24.6125 22.8113 23.1963 21.8488C24.5575 21.6288 25.85 21.175 27.005 20.515C30.5112 18.5488 32.9037 14.8362 33 10.56V10.3125ZM20.6525 19.2225C20.8725 19.2362 21.0925 19.25 21.3125 19.25C22.2062 19.25 23.0725 19.1125 23.8838 18.8787C27.555 17.765 30.25 14.3413 30.25 10.3125C30.25 9.7075 30.195 9.13 30.0713 8.5525C29.8513 7.4525 29.4387 6.435 28.8475 5.5275C27.2662 3.03875 24.475 1.375 21.3125 1.375C16.39 1.375 12.375 5.39 12.375 10.3125C12.375 15.015 16.0325 18.8787 20.6525 19.2225ZM9.41875 23.5537C9.0475 23.43 8.64875 23.375 8.25 23.375H5.5C3.23125 23.375 1.375 25.2313 1.375 27.5V38.4725C1.375 40.7412 3.23125 42.5975 5.5 42.5975H8.25C8.635 42.5975 9.02 42.5425 9.3775 42.4325C7.85125 41.1675 6.875 39.2562 6.875 37.125V28.875C6.875 26.73 7.865 24.805 9.41875 23.5537ZM41.503 26.3546C41.3339 26.1195 41.1441 25.8981 40.9214 25.7056C40.6464 25.465 40.3329 25.2587 39.985 25.0938C39.38 24.8187 38.72 24.7225 38.0683 24.7844C37.84 24.8064 37.6186 24.871 37.3959 24.9301C36.9806 25.0401 36.575 25.1914 36.2037 25.4237L30.8522 28.9479L28.875 30.25L26.136 32.076C25.2326 32.6782 24.1711 33 23.0849 33H19.25C18.4937 33 17.875 32.3813 17.875 31.625C17.875 30.8687 18.4937 30.25 19.25 30.25H23.375C24.8875 30.25 26.125 29.0125 26.125 27.5C26.125 26.0109 24.9232 24.794 23.4424 24.7569C23.419 24.7569 23.3984 24.75 23.375 24.75H13.75C13.717 24.75 13.6868 24.761 13.6538 24.7624C13.3623 24.7693 13.079 24.8077 12.8054 24.871C12.6802 24.8999 12.5634 24.9439 12.4438 24.9838C12.2719 25.0415 12.1055 25.1061 11.9446 25.1859C11.8759 25.2189 11.7961 25.2354 11.7301 25.2725C11.6421 25.3234 11.5596 25.3839 11.4757 25.4403C11.4579 25.4526 11.44 25.4636 11.4235 25.4746C11.2172 25.6176 11.022 25.7744 10.846 25.9518C10.8309 25.9669 10.8185 25.9834 10.8034 25.9999C10.6549 26.1525 10.5215 26.3175 10.3977 26.4908C10.3606 26.543 10.3249 26.5939 10.2905 26.6475C10.1654 26.8414 10.0513 27.0435 9.95913 27.258C9.9495 27.2814 9.94262 27.3061 9.933 27.3295C9.85187 27.5289 9.79 27.7365 9.7405 27.9496C9.72675 28.0115 9.713 28.0734 9.702 28.1352C9.658 28.3759 9.62775 28.6206 9.62775 28.8736V37.1264V37.1319C9.62775 37.3835 9.658 37.6269 9.702 37.8661C9.713 37.928 9.72538 37.9885 9.73913 38.049C9.79138 38.28 9.85738 38.5055 9.94813 38.72C9.9495 38.7241 9.95087 38.7296 9.95225 38.7338C10.0471 38.9593 10.1667 39.1696 10.2987 39.3731C10.3249 39.4144 10.3524 39.4529 10.3813 39.4928C10.5146 39.6825 10.659 39.8612 10.8212 40.0249C10.8281 40.0317 10.8336 40.0386 10.8405 40.0455C11.0069 40.2105 11.1897 40.3576 11.3822 40.4924C11.4372 40.5309 11.4936 40.5652 11.55 40.601C11.6064 40.6367 11.66 40.678 11.7178 40.711C11.7618 40.7357 11.814 40.7454 11.8594 40.7687C12.067 40.8774 12.2842 40.9654 12.5111 41.0383C12.6005 41.0658 12.6844 41.0988 12.7751 41.1208C13.09 41.1978 13.4145 41.25 13.7541 41.25H27.8644C28.292 41.25 28.7086 41.1716 29.1101 41.0451C29.436 40.942 29.7481 40.8031 30.0396 40.6216C30.2143 40.513 30.3861 40.3975 30.5456 40.2627L38.1439 33.7714L41.2555 31.1149L41.4617 30.8949C41.9155 30.2899 42.2318 29.3411 42.2318 28.5849C42.2318 27.7557 41.9677 26.9899 41.5085 26.3533L41.503 26.3546Z" fill="#01A365"/>
</svg>
