<svg width="44" height="44" viewBox="0 0 44 44" fill="none" xmlns="http://www.w3.org/2000/svg">
<g clip-path="url(#clip0_3428_111)">
<path d="M10.2822 8.92152L27.8229 4.13364L26.894 2.25605C26.2863 1.03561 24.8039 0.531623 23.5835 1.13937L7.88086 8.92152H10.2822Z" fill="#01A365"/>
<path d="M33.268 4.27197C33.0507 4.27197 32.8332 4.30162 32.6158 4.36091L28.495 5.48747L15.9102 8.9215H30.1947H36.4204L35.6496 6.09522C35.3532 4.99337 34.3551 4.27197 33.268 4.27197Z" fill="#01A365"/>
<path d="M38.9947 10.6509H38.4314H37.6656H36.8997H31.0545H9.57574H6.75935H4.38765H3.94789H2.47546C1.69478 10.6509 0.998091 11.0116 0.543515 11.5798C0.335991 11.8417 0.177878 12.1431 0.0889388 12.4741C0.0345873 12.6816 0 12.8991 0 13.1214V13.4179V16.2343V40.648C0 42.0117 1.10679 43.1185 2.47052 43.1185H38.9898C40.3536 43.1185 41.4603 42.0117 41.4603 40.648V33.7552H26.8002C24.4829 33.7552 22.6003 31.8727 22.6003 29.5553V27.2923V26.5265V25.7606V24.0609C22.6003 22.9244 23.0549 21.8918 23.7911 21.1358C24.4433 20.4638 25.3179 20.0092 26.2962 19.8956C26.4593 19.8759 26.6273 19.8659 26.7953 19.8659H39.4048H40.1707H40.9366H41.4603V13.1214C41.4652 11.7577 40.3585 10.6509 38.9947 10.6509Z" fill="#01A365"/>
<path d="M43.1945 22.2278C42.9474 22.0005 42.6559 21.8276 42.3298 21.7139C42.0778 21.63 41.811 21.5806 41.5294 21.5806H41.4651H41.4157H40.6499H37.8878H26.8001C25.4363 21.5806 24.3296 22.6873 24.3296 24.0511V25.2814V26.0472V26.8131V29.5504C24.3296 30.9142 25.4363 32.0209 26.8001 32.0209H41.4651H41.5294C41.811 32.0209 42.0778 31.9715 42.3298 31.8875C42.6559 31.7788 42.9474 31.601 43.1945 31.3737C43.6886 30.924 43.9999 30.2718 43.9999 29.5505V24.0511C43.9999 23.3296 43.6886 22.6774 43.1945 22.2278ZM31.9586 27.2924C31.9586 27.9742 31.4052 28.5276 30.7233 28.5276H29.9031C29.2212 28.5276 28.6678 27.9742 28.6678 27.2924V26.4722C28.6678 26.0769 28.8506 25.726 29.1422 25.5037C29.3546 25.3406 29.6166 25.2369 29.9031 25.2369H30.1106H30.7233C31.4052 25.2369 31.9586 25.7902 31.9586 26.4722V27.2924Z" fill="#01A365"/>
</g>
<defs>
<clipPath id="clip0_3428_111">
<rect width="44" height="44" fill="white"/>
</clipPath>
</defs>
</svg>
